<svg width="83" height="71" viewBox="0 0 83 71" fill="none" xmlns="http://www.w3.org/2000/svg">
<path d="M1.15302 47.6773C0.799015 49.4833 0.09198 53.0963 0.09198 53.0963L0 54.8363L0.865967 56.3663C0.865967 56.3663 6.21102 62.8683 9.13202 65.8963C10.277 67.0833 11.475 68.2673 12.955 68.9933C16.63 70.5293 19.929 70.7563 24.469 69.3183C26.067 68.7473 27.105 67.1893 27.013 65.4953C26.798 61.5353 24.496 54.9313 22.889 51.4413C21.544 48.5193 19.576 45.9453 17.539 43.4453C17.069 42.8683 16.441 42.4353 15.731 42.2123C14.673 41.9033 13.537 41.6223 12.443 41.8913C9.86699 42.5243 7.30798 43.2233 4.76898 43.9893C4.09598 44.1873 3.52 44.6053 2.94 44.9843C2.407 45.7843 1.68402 46.8753 1.15302 47.6773ZM8.93799 46.1103L12.818 45.8003C14.08 45.6993 15.312 46.2233 16.114 47.2023C17.258 48.5983 18.799 50.5403 19.182 51.3143C19.853 52.7073 21.265 57.3763 21.726 58.6523L23.107 61.8053C23.825 63.4453 23.323 65.3643 21.892 66.4423C21.278 66.9053 20.54 67.1733 19.772 67.2143L18.105 67.3023C17.291 67.3453 16.484 67.1303 15.8 66.6873L8.17999 61.7523C7.44999 61.2793 6.89997 60.5733 6.62097 59.7493L4.16199 52.4953C3.66799 51.0393 4.08496 49.4293 5.22296 48.3953L6.646 47.1023C7.28 46.5273 8.08599 46.1783 8.93799 46.1103Z" fill="#FF7A00"/>
<path d="M22.5032 13.6768C21.6822 17.8678 20.0412 26.2497 20.0412 26.2497L19.8271 30.2858L21.8362 33.8357C21.8362 33.8357 34.2372 48.9207 41.0142 55.9467C43.6702 58.6997 46.4502 61.4477 49.8852 63.1317C52.4642 64.3957 55.3062 65.0067 58.1142 65.6067C62.3792 66.5167 70.0502 66.2267 76.5972 63.8867C80.3042 62.5617 82.7131 58.9467 82.4991 55.0167C82.0001 45.8287 76.6602 30.5077 72.9312 22.4087C69.8092 15.6297 65.2452 9.65574 60.5172 3.85674C59.4262 2.51774 57.9702 1.51275 56.3222 0.995751C53.8682 0.277751 51.2312 -0.372251 48.6942 0.249749C42.7182 1.71875 36.7802 3.34176 30.8892 5.11776C29.3282 5.57576 27.9922 6.54674 26.6452 7.42574C25.4122 9.28474 23.7352 11.8168 22.5032 13.6768ZM40.5662 10.0417L49.5692 9.32275C52.4972 9.08875 55.3552 10.3027 57.2162 12.5757C59.8692 15.8147 63.4452 20.3198 64.3342 22.1178C65.9002 25.3538 69.1602 36.1807 70.2372 39.1417L73.4412 46.4578C75.9852 52.0868 71.8732 58.7517 65.7032 59.0067L61.8351 59.2118C59.9461 59.3118 58.0742 58.8117 56.4872 57.7837L38.8082 46.3338C38.8082 46.3338 35.8392 43.5988 35.1912 41.6868L29.4872 24.8577C28.3422 21.4797 29.3092 17.7437 31.9492 15.3447L35.2512 12.3437C36.7192 11.0097 38.5892 10.1997 40.5662 10.0417Z" fill="#FF7A00"/>
</svg>
